<?xml version="1.0" encoding="UTF-8" standalone="no"?>
<svg
   xmlns:dc="http://purl.org/dc/elements/1.1/"
   xmlns:cc="http://creativecommons.org/ns#"
   xmlns:rdf="http://www.w3.org/1999/02/22-rdf-syntax-ns#"
   xmlns:svg="http://www.w3.org/2000/svg"
   xmlns="http://www.w3.org/2000/svg"
   xmlns:sodipodi="http://sodipodi.sourceforge.net/DTD/sodipodi-0.dtd"
   xmlns:inkscape="http://www.inkscape.org/namespaces/inkscape"
   width="512"
   height="512"
   viewBox="0 0 512 512"
   fill="none"
   version="1.1"
   id="svg42"
   sodipodi:docname="spotify.svg"
   inkscape:version="1.0 (4035a4fb49, 2020-05-01)">
  <metadata
     id="metadata48">
    <rdf:RDF>
      <cc:Work
         rdf:about="">
        <dc:format>image/svg+xml</dc:format>
        <dc:type
           rdf:resource="http://purl.org/dc/dcmitype/StillImage" />
        <dc:title />
      </cc:Work>
    </rdf:RDF>
  </metadata>
  <defs
     id="defs46" />
  <sodipodi:namedview
     showborder="false"
     inkscape:showpageshadow="false"
     inkscape:document-rotation="0"
     pagecolor="#ffffff"
     bordercolor="#666666"
     borderopacity="1"
     objecttolerance="10"
     gridtolerance="10"
     guidetolerance="10"
     inkscape:pageopacity="0"
     inkscape:pageshadow="2"
     inkscape:window-width="1366"
     inkscape:window-height="715"
     id="namedview44"
     showgrid="false"
     inkscape:zoom="0.36036497"
     inkscape:cx="452.9812"
     inkscape:cy="336.88302"
     inkscape:window-x="-8"
     inkscape:window-y="-8"
     inkscape:window-maximized="1"
     inkscape:current-layer="svg42" />
  <path
     d="m 605.8329,-259.46572 -0.878,-0.516 -2.03,-0.619 c 0.817,0.689 1.839,1.089 2.908,1.135 z"
     fill="#0d0c22"
     id="path2-2" />
  <path
     d="m 618.6199,-168.09272 -0.98,0.275 z"
     fill="#0d0c22"
     id="path4-5" />
  <path
     d="m 606.2079,-259.60672 c -0.125,-0.016 -0.247,-0.045 -0.366,-0.087 -0.007,0.081 -0.007,0.163 0,0.244 0.134,-0.018 0.261,-0.072 0.366,-0.157 z"
     fill="#0d0c22"
     id="path6-9" />
  <path
     d="m 605.8369,-259.45472 h 0.131 v -0.082 z"
     fill="#0d0c22"
     id="path8-8" />
  <path
     d="m 617.8349,-168.25772 1.48,-0.843 0.551,-0.31 0.499,-0.533 c -0.939,0.404 -1.795,0.976 -2.53,1.686 z"
     fill="#0d0c22"
     id="path10-7" />
  <path
     d="m 608.3929,-257.46872 -1.446,-1.377 -0.98,-0.533 c 0.527,0.93 1.398,1.616 2.426,1.91 z"
     fill="#0d0c22"
     id="path12-0" />
  <path
     d="m 244.7429,629.19628 c -1.155,0.5 -2.167,1.28 -2.943,2.27 l 0.912,-0.58 c 0.62,-0.57 1.497,-1.24 2.031,-1.69 z"
     fill="#0d0c22"
     id="path14-2" />
  <path
     d="m 455.9109,587.64628 c 0,-1.3 -0.636,-1.06 -0.482,3.58 0,-0.37 0.155,-0.75 0.224,-1.11 0.086,-0.83 0.155,-1.64 0.258,-2.47 z"
     fill="#0d0c22"
     id="path16-5" />
  <path
     d="m 434.0079,629.19628 c -1.155,0.5 -2.166,1.28 -2.942,2.27 l 0.912,-0.58 c 0.619,-0.57 1.497,-1.24 2.03,-1.69 z"
     fill="#0d0c22"
     id="path18-8" />
  <path
     d="m 96.027898,639.07628 c -0.877,-0.76 -1.95,-1.26 -3.097,-1.45 0.929,0.45 1.858,0.9 2.477,1.24 z"
     fill="#0d0c22"
     id="path20-3" />
  <path
     d="m 62.564898,607.02628 c -0.137,-1.35 -0.553,-2.66 -1.222,-3.85 0.474,1.23 0.87,2.5 1.187,3.78 z"
     fill="#0d0c22"
     id="path22-1" />
  <path
     d="m -106.5876,-170.85172 0.7914,0.74 0.5163,0.31 c -0.3975,-0.395 -0.8359,-0.747 -1.3077,-1.05 z"
     fill="#0d0c22"
     id="path26-8" />
  <rect
     ry="66.289345"
     y="0"
     x="0"
     height="512"
     width="512"
     id="rect885-3"
     style="fill:#000000;fill-opacity:1;stroke-width:8.34983;stroke-linecap:round" />
  <path
     style="fill:#1db954;fill-opacity:1;stroke-width:0.807821"
     id="path7941"
     d="m 250.60822,54.884848 c -110.5907,0 -200.3396,89.748892 -200.3396,200.339582 0,110.59067 89.7489,200.33959 200.3396,200.33959 110.5907,0 200.33962,-89.74892 200.33962,-200.33959 0,-110.59069 -89.74892,-200.339582 -200.33962,-200.339582 z m 81.34755,294.773842 c -3.39286,0 -5.4932,-1.05017 -8.64371,-2.90815 -50.40803,-30.37405 -109.05582,-31.66659 -166.97654,-19.7916 -3.15051,0.8078 -7.27044,2.10033 -9.61314,2.10033 -7.83578,0 -12.76353,-6.22023 -12.76353,-12.76359 0,-8.32055 4.92775,-12.27888 10.98641,-13.57139 66.16047,-14.62157 133.77507,-13.32903 191.45355,21.16491 4.92775,3.15052 7.83579,5.97788 7.83579,13.32904 0,7.35119 -5.73545,12.44045 -12.27883,12.44045 z m 21.73036,-52.99305 c -4.20068,0 -7.02798,-1.85798 -9.93624,-3.39285 -50.48868,-29.88936 -125.77768,-41.92591 -192.74596,-23.74995 -3.87759,1.05018 -5.97792,2.10037 -9.61314,2.10037 -8.64372,0 -15.67169,-7.02808 -15.67169,-15.67176 0,-8.64364 4.20068,-14.37921 12.52118,-16.72189 22.45742,-6.30097 45.39954,-10.98636 79.00497,-10.98636 52.42752,0 103.07791,13.00592 142.98425,36.75586 6.54338,3.87755 9.12842,8.88601 9.12842,15.91407 -0.0809,8.72446 -6.86647,15.75251 -15.67179,15.75251 z m 25.04246,-61.55594 c -4.20067,0 -6.78573,-1.05019 -10.42083,-3.15052 -57.51688,-34.33239 -160.35254,-42.57215 -226.91697,-23.99228 -2.90816,0.80781 -6.54337,2.10035 -10.42084,2.10035 -10.6633,0 -18.82231,-8.32056 -18.82231,-19.06459 0,-10.98636 6.78573,-17.20658 14.05617,-19.30693 28.43522,-8.32054 60.26342,-12.27885 94.91891,-12.27885 58.971,0 120.76929,12.27885 165.92637,38.61383 6.30102,3.63517 10.42095,8.64369 10.42095,18.25675 0,10.98638 -8.88607,18.82224 -18.74145,18.82224 z" />
</svg>
